<svg xmlns="http://www.w3.org/2000/svg" xmlns:xlink="http://www.w3.org/1999/xlink" width="1500" height="1500"
  viewBox="0 0 1500 1500">
  <defs>
    <clipPath id="clip-undraw_art_re_vj2w">
      <rect width="1500" height="1500" />
    </clipPath>
  </defs>
  <g id="undraw_art_re_vj2w" clip-path="url(#clip-undraw_art_re_vj2w)">
    <rect width="1500" height="1500" fill="rgba(255,255,255,0)" />
    <path id="Path_6865" data-name="Path 6865"
      d="M817.308,646.255A537.068,537.068,0,0,0,790.9,502.486s.012-.012,0-.012q-5.015-15.28-10.993-30.308-2.237-5.647-4.606-11.257a538.516,538.516,0,0,0-44.668-84.152q-9.237-14.252-19.4-27.9a546.676,546.676,0,0,0-52.124-60.291q-11.528-11.528-23.621-22.262c-1.167-1.046-2.333-2.081-3.512-3.091A538.21,538.21,0,0,0,537.66,197.1c-.481-.289-.95-.541-1.431-.794q-10.3-5.665-20.854-10.848c-.722-.361-1.431-.722-2.153-1.058q-9.038-4.42-18.257-8.479c-.974-.445-1.96-.878-2.947-1.3-.024-.012-.036-.024-.06-.024q-2.6-1.137-5.2-2.237l-1.371-.577h-.012a538.321,538.321,0,0,0-196.566-41.865q-6.531-.162-13.1-.156H158.406a102.3,102.3,0,0,0-26.964,3.6c-.18.048-.349.1-.529.144a102.814,102.814,0,0,0-75.144,98.885V678.595a16.387,16.387,0,0,0,5.977,12.664c.024.024.048.036.06.048a16.353,16.353,0,0,0,10.415,3.728H794.83a23.108,23.108,0,0,0,23.079-23.08Q817.909,659.057,817.308,646.255Z"
      transform="translate(39.285 235.118)" fill="#edd9cb" opacity="0.414" />
    <path id="Path_6866" data-name="Path 6866"
      d="M548.849,547.326a261,261,0,0,1-26.827,115.641H72.12a15.848,15.848,0,0,1-15.848-15.848v-225C125.4,294.877,284.583,247.767,411.822,316.893A262.191,262.191,0,0,1,548.849,547.326Z"
      transform="translate(39.389 266.59)" fill="#dec8bb" />
    <path id="Path_6867" data-name="Path 6867"
      d="M817.356,488.659v135a22.482,22.482,0,0,1-22.483,22.483H71.272a15.734,15.734,0,0,1-15.734-15.73v-.16c0-112.445,349.739-208.357,449.181-245.6A262.5,262.5,0,0,1,817.356,488.659Z"
      transform="translate(39.238 283.415)" fill="#efd7c8" />
    <path id="Path_6868" data-name="Path 6868"
      d="M363.346,316.135q0,13.6-1.131,25.966c-9.742,107.556-81.277,145.946-168.063,145.946-2.177,0-4.33-.024-6.482-.084-4.33-.084-8.623-.289-12.857-.589-38.955-2.754-73.881-14.216-100.208-37.415a126.787,126.787,0,0,1-12.592-12.809c-23.188-27.169-37.055-66.5-37.055-121.014,0-88.6,81.782-193.957,131.634-249.942a50.139,50.139,0,0,1,36.273-16.85h.481a50.052,50.052,0,0,1,38.366,16.85,849.053,849.053,0,0,1,63.345,80.027C331.27,198.6,363.346,260.655,363.346,316.135Z"
      transform="translate(33.041 218.817)" fill="#e18b25" />
    <path id="Path_6869" data-name="Path 6869"
      d="M147.01,420.171,208.9,333.7,146.853,429.66l-.156,9.922-1.383,85.09-.505,31.21h-17.09l1.179-22.538,4.943-94.351,6.675-127.472-.06-1,.12-.18.048-1.022L141.2,298.3,79.01,202.113l62.383,87.158.144,2.55,5.039-96.311L96.184,101.424l-2.85-5.316,3.38,5.172,50.525,77.309.746-28.756,1.371-52.148L151.893.964h.481l-.529,96.72-.216,38.678,32.833-38.678L204.63,73.931,187.985,97.684,151.4,149.916,150,236.161l49.49-82.757L149.8,248.849l-.782,47.951L220.854,181.6l-66.569,121.8-5.544,10.139Z"
      transform="translate(74.014 267.197)" fill="#551f12" />
    <path id="Path_6870" data-name="Path 6870"
      d="M581.572,257.927q0,11.438-1,21.781c-8.154,85.836-65.534,116.5-135.109,116.5-1.744,0-3.488-.024-5.208-.06q-5.232-.108-10.343-.493a173.08,173.08,0,0,1-30.139-4.642c-24.583-6.11-45.894-17.932-61.65-36.995-18.016-21.8-28.756-53.074-28.756-96.094,0-31.943,13.217-66.593,31.414-99.161,19.868-35.563,45.678-68.637,66.689-93A49.941,49.941,0,0,1,444.31,48.383h.481a49.977,49.977,0,0,1,38.678,17.379C523.735,112.438,581.572,191.106,581.572,257.927Z"
      transform="translate(90.686 218.623)" fill="#e18b25" />
    <path id="Path_6871" data-name="Path 6871"
      d="M402.668,332.149,452.447,262.6l-49.9,77.188-.132,7.986-.565,34.818-.373,23.524-.577,35.2H387.153l1.612-30.8,2.129-40.687,1.179-22.55,5.364-102.529-.036-.794.084-.144.505-9.694-50.02-77.381,50.176,70.116.12,2.057,4.053-77.477-6.17-11.534h-.012L359.492,71.479l43.357,66.352L406.468,0h.481l-.577,103.852,42.635-50.212-42.8,61.12-.481,29.273-.649,40.1,18.906-31.619,20.9-34.95-18.75,36.008L404.9,194.346l-.625,38.57,42.707-68.493,15.082-24.174-13.65,24.968-44.355,81.157Z"
      transform="translate(128.527 267.002)" fill="#551f12" />
    <path id="Path_6872" data-name="Path 6872"
      d="M799.712,365.031c0,69.01-41.023,93.1-91.632,93.1q-1.75,0-3.5-.036c-2.345-.06-4.666-.156-6.964-.337a108.712,108.712,0,0,1-31.354-6.579c-29.574-11.365-49.8-37.68-49.8-86.148a83.23,83.23,0,0,1,.529-9.261c1.7-15.478,7.421-31.63,15.238-47.326a271.305,271.305,0,0,1,14.889-25.954c6.927-10.752,14.372-20.939,21.6-30.115a49.826,49.826,0,0,1,38.342-19.063c.168,0,.337-.012.517,0a49.826,49.826,0,0,1,39.881,19.063C772.29,283.922,799.712,327.279,799.712,365.031Z"
      transform="translate(152.928 256.105)" fill="#e18b25" />
    <path id="Path_6873" data-name="Path 6873"
      d="M696.075,447.571l33.507-46.82-33.591,51.968-.084,5.376-.95,57.813-.084,5.16h-9.249l.914-17.451,2.405-45.858,3.608-69.022-.036-.541.06-.1.349-6.519-33.675-52.1,33.771,47.205.084,1.383,2.73-52.16-28.828-53.832L696.2,316.767l2.189-83.454c.168,0,.337-.012.517,0l-.337,60.567,28.708-33.807-28.828,41.144-.758,46.712L724.495,303.1,697.578,354.8l-.421,25.966,38.907-62.383-39.051,71.439Z"
      transform="translate(161.602 256.105)" fill="#551f12" />
    <path id="Path_6874" data-name="Path 6874"
      d="M210.428,452.079c-4.055,6.468-9.316,6.316-14.06,3.343s-7.173-7.643-3.118-14.111,17.8-9.313,17.8-9.313S214.483,445.61,210.428,452.079Z"
      transform="translate(66.734 296.376)" fill="#fd9e37" />
    <path id="Path_6875" data-name="Path 6875"
      d="M105.467,466.758c-4.055,6.469-9.316,6.316-14.06,3.343s-7.173-7.643-3.118-14.111,17.8-9.313,17.8-9.313S109.523,460.29,105.467,466.758Z"
      transform="translate(45.461 299.352)" fill="#fd9e37" />
    <path id="Path_6876" data-name="Path 6876"
      d="M477.725,440.243c.75,7.6-3.5,10.7-9.076,11.247s-10.35-1.656-11.1-9.254,8.383-18.259,8.383-18.259S476.974,432.645,477.725,440.243Z"
      transform="translate(120.711 294.751)" fill="#fd9e37" />
    <path id="Path_6877" data-name="Path 6877"
      d="M356.492,362.532c-4.055,6.469-9.316,6.316-14.06,3.343s-7.173-7.643-3.118-14.111,17.8-9.313,17.8-9.313S360.547,356.063,356.492,362.532Z"
      transform="translate(96.34 278.227)" fill="#fd9e37" />
    <path id="Path_6878" data-name="Path 6878"
      d="M635.407,445.473c-4.055,6.469-9.316,6.316-14.06,3.343s-7.173-7.643-3.118-14.111,17.8-9.313,17.8-9.313S639.462,439,635.407,445.473Z"
      transform="translate(152.871 295.037)" fill="#fd9e37" />
    <path id="Path_6879" data-name="Path 6879"
      d="M1186.285,587.278c0,211.887-96.2,379.042-214.679,383.656-154.5,6.018-356.423-148.033-214.679-383.656,109.225-181.566,96.115-383.656,214.679-383.656S1186.285,375.39,1186.285,587.278Z"
      transform="translate(171.654 250.089)" fill="#efd7c8" />
    <path id="Path_6880" data-name="Path 6880"
      d="M1206.6,513.355c-19.171,23.825-45.353,52.124-73.821,70.718-13.542,8.852-27.614,15.515-41.685,18.449C1017.264,617.94,982.326,579.43,971.021,525.3c-.265-1.263-.517-2.514-.734-3.764q-.722-3.788-1.215-7.529c-6.747-49.587,12.424-93.208,81.085-107.544,21.251-4.438,45.87-1.094,70.152,5.917,25.617,7.4,50.849,18.87,71.379,29.586a46.928,46.928,0,0,1,24.138,31.186c.036.156.072.313.1.469a46.91,46.91,0,0,1-9.321,39.737Z"
      transform="translate(224.141 290.794)" fill="#e18b25" />
    <path id="Path_6881" data-name="Path 6881"
      d="M1142.856,483.071l-43,8.25,44.511,15.406,9.429,3.259-9.405-2.646-51.908-14.613-27.878,5.352,75.444,27.7-85.174-25.822-61.986,11.895,57.584,25.389-63.1-24.33-5.761,1.106-25.786,4.943v.012L928.514,524.2l-10.391,2-4.125.794-2.069-9.91,4.2-.649,8.623-1.335,31.51-4.871,24.138-3.74,74.662-11.558.565-.144.12.048,7.048-1.094,48.216-47.674-42.96,46.688-1.455.4L1123,484.418l18.545-15.539,32.617-27.337-32.148,32.088-9.128,9.116,9.79-1.78,84.477-15.334c.036.156.072.313.1.469l-69.359,14.083,42.575,23.152L1150,481.7Z"
      transform="translate(212.814 298.311)" fill="#551f12" />
    <path id="Path_6882" data-name="Path 6882"
      d="M960.122,372a.172.172,0,0,0-.024-.084,12.667,12.667,0,0,0-2.742-5.3,12.821,12.821,0,0,0-9.092-4.4c-.144,0-.276-.012-.421-.012a13.073,13.073,0,0,0-3.957.577,12.825,12.825,0,0,0-8.912,10.788l-.746,15.5-2.249,47.013-.3,6.074-3.632,75.733a15.82,15.82,0,0,0-5.448,13.29,15.983,15.983,0,0,0,30.969,4.173c.036-.1.072-.2.108-.3v-.012a15.894,15.894,0,0,0,.433-8.732,16.842,16.842,0,0,0-1.251-3.464,16.048,16.048,0,0,0-1.215-2.021l4.943-81.542,2.97-49.142.782-12.929.036-.553a12.539,12.539,0,0,0,.1-2.009.322.322,0,0,0,0-.108,12.894,12.894,0,0,0-.349-2.538Z"
      transform="translate(214.967 282.23)" fill="#ddb08e" />
    <path id="Path_6883" data-name="Path 6883"
      d="M964.365,384.141a22.984,22.984,0,0,0-.53-4.912c-.1-.513-.228-1.03-.372-1.535a24.5,24.5,0,0,0-27.974-17.475c-15.418,2.8-24.619,7.95-27.349,15.3-1.924,5.184-.938,12.123,1.515,19.459v.012a114.6,114.6,0,0,0,8.034,17.884c.589,1.07,1.179,2.129,1.768,3.163A217.521,217.521,0,0,0,932.4,436.025l.144.2,2.562.337,3.235.421,21.372,2.778,1.347.18.072-.589a400.79,400.79,0,0,0,3.235-55.215Z"
      transform="translate(211.842 281.747)" fill="#93a7bc" />
    <ellipse id="Ellipse_1070" data-name="Ellipse 1070" cx="191.227" cy="20.446" rx="191.227" ry="20.446"
      transform="translate(891.299 1192.158)" fill="#d7d7d7" />
    <path id="Path_6884" data-name="Path 6884" d="M845.45,774.766H825.16L815.507,696.5h29.947Z"
      transform="translate(223.289 408.171)" fill="#ddb08e" />
    <path id="Path_6885" data-name="Path 6885"
      d="M885.749,843.94l-1.9-22.743-1.6-19.243-6.879-.409-21.732-1.3-3.464-.2v13.747l-11.762,8.118-6.206,4.294-12.532,8.647a8.585,8.585,0,0,0,4.883,15.647h38.185l5.376-11.1,1.2-2.5.565,3.007v.012l2.008,10.584h14.4Z"
      transform="translate(193.365 370.973)" fill="#551f12" />
    <path id="Path_6886" data-name="Path 6886" d="M927.344,760.549l-18.974,7.191-36.765-69.762,28-10.612Z"
      transform="translate(234.66 406.319)" fill="#ddb08e" />
    <path id="Path_6887" data-name="Path 6887"
      d="M972.645,826.988,953.45,786.782l-6.567,2.057L926.1,795.333l-3.319,1.034,4.871,12.845-21.047,30.5a8.583,8.583,0,0,0,3.9,12.857,8.392,8.392,0,0,0,5.617.229h.036a4.254,4.254,0,0,0,.553-.18l35.708-13.53,1.167-13.218.168-1.828,1.167,1.9,6.062,9.9,13.458-5.1Z"
      transform="translate(211.428 368.285)" fill="#551f12" />
    <path id="Path_6888" data-name="Path 6888"
      d="M979.725,693.243c.75,7.6-3.5,10.7-9.076,11.247s-10.35-1.656-11.1-9.254,8.383-18.259,8.383-18.259S978.974,685.645,979.725,693.243Z"
      transform="translate(222.459 346.03)" fill="#fd9e37" />
    <path id="Path_6889" data-name="Path 6889"
      d="M945.468,614.758c-4.055,6.469-9.316,6.316-14.06,3.343s-7.173-7.643-3.118-14.112,17.8-9.313,17.8-9.313S949.523,608.29,945.468,614.758Z"
      transform="translate(215.715 329.349)" fill="#fd9e37" />
    <path id="Path_6890" data-name="Path 6890"
      d="M904.71,638.427s88.826,139.85,78.994,146.122-89.5,30.852-96.624,25.936S874.2,644.7,874.2,644.7Z"
      transform="translate(205.168 338.216)" fill="#534711" />
    <path id="Path_6891" data-name="Path 6891"
      d="M860.6,458.881c13.053.509,66.7,8.28,65.515,10.314a42.849,42.849,0,0,1-3.9,5.085s2.712,12.375,1.526,13.561S946.97,517,932.731,577.007s-12.714,101.54-12.714,101.54,5.764,175.957-10.68,179.517-81.2,1.187-84.249-5.764,9.323-222.743,9.323-222.743,1.356-108.49,4.577-121.712S852.536,458.7,860.6,458.881Z"
      transform="translate(195.115 301.825)" fill="#534711" />
    <circle id="Ellipse_1071" data-name="Ellipse 1071" cx="40.853" cy="40.853" r="40.853"
      transform="translate(1077.924 530.394)" fill="#ddb08e" />
    <path id="Path_6892" data-name="Path 6892"
      d="M959.261,347.72c5.764,5.763,30.682,29.5,3.56,71.535s-44.413,72.553-44.413,72.553l-67.467-7.967,10.34-41.023s-5.086-32.377,12.205-48.481,36.276-42.548,36.276-42.548L919.554,350S953.5,341.957,959.261,347.72Z"
      transform="translate(200.453 278.873)" fill="#93a7bc" />
    <path id="Path_6893" data-name="Path 6893"
      d="M941.437,407.75s-95.268,73.4-101.37,47.634c-3.966-16.746.663-79.685,3.285-106.5l19.261.217s-4.068,59.161,4.068,65.941c0,0,29.478-28.464,35.59-28.048S941.437,407.75,941.437,407.75Z"
      transform="translate(197.938 279.53)" fill="#ddb08e" />
    <path id="Path_6894" data-name="Path 6894"
      d="M957.114,361.322s-12.936,60.053-51.077,69.885l-44.5-18.04s56.588-60.321,76.082-61S957.114,361.322,957.114,361.322Z"
      transform="translate(202.602 280.19)" fill="#93a7bc" />
    <circle id="Ellipse_1072" data-name="Ellipse 1072" cx="15.635" cy="15.635" r="15.635"
      transform="translate(1036.477 606.763)" fill="#ddb08e" />
    <path id="Path_6895" data-name="Path 6895"
      d="M971.2,320.377c-.117-10.119-.248-20.35-2.574-30.157s-7.1-19.3-14.825-25.119-18.7-7.219-26.653-1.755c-5.923-7.63-16.165-10.547-25.225-8.484s-16.889,8.555-22.3,16.608-8.611,17.59-10.777,27.24c-.769,3.427-1.092,7.8,1.666,9.721,2.162,1.506,5.016.577,7.43-.393l19.926-8c6.716,9.183,16.391,17.559,15.058,29.135s-9.073,23.764-13.166,34.583l17.129-6.183c1.828-3.052,6.36-7.853,6.036-11.4a28.839,28.839,0,0,1,2.522,8.338c0,.023,0,.047,0,.07l31.777-11.47c3.782-1.365,7.752-2.862,10.364-6.1C971.146,332.607,971.264,326.206,971.2,320.377Z"
      transform="translate(203.973 260.344)" fill="#551f12" />
    <ellipse id="Ellipse_1073" data-name="Ellipse 1073" cx="66.855" cy="66.855" rx="66.855" ry="66.855"
      transform="translate(833.107 234.662)" fill="#e18b25" />
    <path id="Path_6931" data-name="Path 6931"
      d="M977.811,122.442c-32.4-4.38-69.391,13.133-77.789,44.732a28.31,28.31,0,0,0-53.869,2.764l3.709,2.657a488,488,0,0,0,210.6-.952C1037.929,147.956,1010.212,126.822,977.811,122.442Z"
      transform="translate(42.798 127.78)" fill="#efd7c8" opacity="0.603" />
    <path id="Path_6932" data-name="Path 6932"
      d="M871.811,190.442c-32.4-4.38-69.391,13.133-77.789,44.732a28.31,28.31,0,0,0-53.869,2.764l3.709,2.657a488,488,0,0,0,210.6-.952C931.929,215.956,904.212,194.822,871.811,190.442Z"
      transform="translate(9.846 148.92)" fill="#efd7c8" opacity="0.678" />
    <ellipse id="Ellipse_1078" data-name="Ellipse 1078" cx="3.5" cy="5.5" rx="3.5" ry="5.5"
      transform="matrix(0.951, -0.309, 0.309, 0.951, 1081.472, 575.351)" fill="#551f12" />
  </g>
</svg>